#!OML:ASF F:\VICON\USERDATA\INSTALL\rory3\rory3.ASF
:FULLY-SPECIFIED
:DEGREES
57
root -0.5271702394952004 18.155705486377137 24.958589704796967 4.372343332277788 0.07730670508549375 -2.201865582608776
lfemur -40.365381242723345 5.025421140902606 -19.89010427672212
ltibia 47.525083935533495
lfoot 4.045098605242755 -12.909167878153308
ltoes -18.529694303817863
rfemur 16.468034880224657 7.2957227736962915 31.973119623885186
rtibia 29.37284505306863
rfoot 28.878732529802537 -6.978911107349458
rtoes 10.822034088353542
lowerback 12.985659031453629 2.4835156374819283 5.160305350058529
upperback -1.067313627373141 4.146431486177401 0.5411084021149823
thorax -7.964564130131938 1.7354006312204155 -2.534048146112438
lowerneck -17.549759979689792 -4.7756475245421415 -2.4293369575248662
upperneck 16.273326972189455 -6.537584795505072 4.084109115430872
head 8.133899244638618 -2.9052229482531495 0.9459067276884999
lclavicle 1.086022048637704e-16 1.6663145208592366e-15
lhumerus -68.92846866071676 -3.262930524283767 91.81491724854884
lradius 92.19314794629253
lwrist 35.68119159682042
lhand -29.883652686987947 5.476687484319551
lfingers 7.125019999999998
lthumb -2.4894990925806724 35.785134203225596
rclavicle 1.1633101105401093e-16 1.6704304435494455e-15
rhumerus -32.39499644716905 19.64290355492922 -92.10084367969716
rradius 123.8092937775581
rwrist -20.738333987856628
rhand -17.16223369245839 40.523794469235845
rfingers 7.125019999999998
rthumb 7.901660325651224 11.25362759154733
58
root -0.5421989179931979 18.25047138711088 25.905657328951232 4.719420498569885 0.09160337154755016 -2.5782614401217785
lfemur -37.75749944401154 4.456468703698164 -19.8201761061505
ltibia 38.62831989084696
lfoot 6.765166642997947 -14.464244002513315
ltoes -16.862223920646805
rfemur 15.929916219956288 8.433925197281727 32.44231176249049
rtibia 33.22075898095517
rfoot 29.901877429462825 -7.6972717785405855
rtoes 16.46721222626672
lowerback 12.402692353268813 2.587033702858653 5.460931833915631
upperback -1.3879522729712144 4.220890896491463 0.48763677527100946
thorax -7.994858425127441 1.7551211068864379 -2.7396487052214513
lowerneck -17.515036988403708 -4.713807620842092 -2.4786921274785025
upperneck 16.938310919836244 -6.4284938871923245 3.9737914789091944
head 8.354742426567684 -2.877681049648347 0.9189504797996338
lclavicle 1.0965513707752604e-16 1.6670214929060937e-15
lhumerus -69.07537068620447 -2.680201999540359 91.12779953384953
lradius 94.59033810156998
lwrist 35.478892993968124
lhand -30.383393767452635 6.224712128143259
lfingers 7.125019999999998
lthumb -3.415668366429121 37.44146262067872
rclavicle 1.1798003761113523e-16 1.6715294772748611e-15
rhumerus -33.30373755749623 19.727410037972817 -92.57723373137445
rradius 123.86320971042478
rwrist -20.499280604764895
rhand -17.143168521850125 40.096492207308
rfingers 7.125019999999998
rthumb 7.922991893047118 11.209883401445449
59
root -0.5600289898737569 18.2899473537213 26.94587285363473 4.7455886042995825 -0.49874888635065584 -2.9285196068012427
lfemur -34.91570038242817 4.751664189559731 -19.927413886819515
ltibia 31.103920695347647
lfoot 8.775261045929103 -15.252879072833299
ltoes -13.849015292778816
rfemur 14.682261142442224 9.06658303336788 32.85019547489676
rtibia 39.44682764148962
rfoot 28.684637116228178 -8.591635715702783
rtoes 12.208631619943958
lowerback 12.349214766830546 2.8195595394963164 5.5100933907968495
upperback -1.4466088148304022 4.454410044063303 0.5517956619838937
thorax -8.04259562596895 1.8863225691268182 -2.815951687361739
lowerneck -17.57101682115026 -4.644936257732333 -2.4968946889219916
upperneck 17.24330656674644 -6.288399811131878 3.8346123428510244
head 8.533587136775164 -2.7880347314001863 0.8718351616494531
lclavicle 1.106174726828526e-16 1.6676822795731057e-15
lhumerus -68.97127494757265 -2.269250709158057 90.6483046222703
lradius 97.15687127237007
lwrist 35.12343048647628
lhand -28.421152568381437 1.4617806119442505
lfingers 7.125019999999998
lthumb -2.4035065640677966 30.61011259779718
rclavicle 1.1943241415034537e-16 1.672230954333318e-15
rhumerus -34.025222765302104 19.947823959295274 -93.16083646577218
rradius 123.59255023312059
rwrist -20.251604477577185
rhand -17.464169499942685 39.8471548891346
rfingers 7.125019999999998
rthumb 7.885321538612506 11.15729368693577
60
root -0.5747764831470312 18.255027556385194 27.931134979658058 4.54774831990521 -0.46514304812202256 -3.8249886184770268
lfemur -32.449408143730864 4.994121459533691 -19.550207189335268
ltibia 26.612606466624946
lfoot 9.322065547300358 -16.01012328485742
ltoes -15.84756299903409
rfemur 13.210902878421882 8.24625308545053 33.51723824188419
rtibia 46.681926631436895
rfoot 26.479979913175594 -9.73998200397602
rtoes 13.054234311341423
lowerback 12.700244885761798 2.775815203277394 6.180128057545638
upperback -1.4331011893016874 4.620361256217376 0.7222316791607721
thorax -8.23748855051141 1.9662783708119576 -2.9500941864526995
lowerneck -17.59227244887017 -4.532642208564251 -2.5170904670721286
upperneck 17.214403707327783 -6.024880897403712 3.715380634857
head 8.581001757790906 -2.686370240244782 0.8390288979015603
lclavicle 1.1456629884463795e-16 1.6703408119648674e-15
lhumerus -68.55666158978326 -2.1616400841180647 90.42744010534912
lradius 99.5313191256068
lwrist 34.275004016379384
lhand -28.419679461773544 -0.6908056284152071
lfingers 7.125019999999998
lthumb -2.290705331801966 28.054377338302455
rclavicle 1.231008847127828e-16 1.6751002848381645e-15
rhumerus -34.577149229846945 19.872417954672805 -93.73870503689568
rradius 123.30682408928492
rwrist -20.430877321003354
rhand -17.647657561726795 39.96353035227805
rfingers 7.125019999999998
rthumb 8.000686114312069 11.44831636887943
61
root -0.5830083799495414 18.189333745892373 28.790445931013373 4.086833157491191 0.05141942524197474 -3.520217857830168
lfemur -30.149907312843887 4.431623254055063 -20.581784089726895
ltibia 24.861807456362904
lfoot 9.522207817010852 -15.370610930046697
ltoes -14.837074634277716
rfemur 11.120779604857821 6.140387290255562 32.617432150539784
rtibia 54.52544284548341
rfoot 24.37114661720729 -10.61302164213127
rtoes 11.96850892392743
lowerback 12.963455131738735 2.6259986743129162 5.887148212419479
upperback -1.2404632233185624 4.367095185765615 0.6696100180398783
thorax -8.348041640123315 1.8911427548359965 -2.768992510238038
lowerneck -17.606818664657634 -4.384613070770772 -2.545845660981169
upperneck 16.88192955600674 -5.765700285992948 3.589802264898739
head 8.542597321665006 -2.552259845393294 0.8264954112302857
lclavicle 1.116913440144422e-16 1.668401486019062e-15
lhumerus -67.86132403232583 -2.2821855734101506 90.49551230048928
lradius 101.70386454565059
lwrist 33.374548257275926
lhand -28.762382940855023 2.9367871537292856
lfingers 7.125019999999998
lthumb -1.6564272075336364 33.61612002551987
rclavicle 1.1958218812759892e-16 1.672321329017493e-15
rhumerus -34.588204085434384 19.843394097873713 -94.14059249778828
rradius 122.01407340764122
rwrist -20.23077665651433
rhand -17.902348812819334 39.94381408675778
rfingers 7.125019999999998
rthumb 7.886143677530652 11.3483508343586
62
root -0.6074833213206488 18.062790770255543 29.692828186208956 3.3742097193903744 1.013420064274035 -2.9874037345168616
lfemur -27.97326133232644 3.340077097284878 -21.71184141084074
ltibia 25.38795904542721
lfoot 8.531944411172779 -15.918575263435429
ltoes -17.70986705820687
rfemur 8.839635597278038 3.1420195431711684 31.239196106961273
rtibia 63.4081404621231
rfoot 22.329015132633447 -11.38075736828441
rtoes 12.705934422395256
lowerback 13.462107046469667 2.3342805667005693 5.295826313812946
upperback -0.9851249518305593 3.964123631523623 0.6237914301407315
thorax -8.531209989677716 1.7379225421963456 -2.4647944599163085
lowerneck -17.44934153255281 -4.243284481918916 -2.5878266276398643
upperneck 16.355790626648297 -5.52866032374791 3.5134297803449965
head 8.38365667732642 -2.4392637550316474 0.8329868826624972
lclavicle 1.0903069897236144e-16 1.666586688623272e-15
lhumerus -66.36695852694119 -2.756796258997822 90.70706338141376
lradius 102.83009561603636
lwrist 32.81412234222408
lhand -28.500176614047774 1.5096527098287162
lfingers 7.125019999999998
lthumb -1.5328706225933102 32.57913640150581
rclavicle 1.209999103728344e-16 1.6726580213964972e-15
rhumerus -34.81386772944981 19.56868753648568 -94.64925070986548
rradius 120.0823186810051
rwrist -20.194182846685813
rhand -18.09263800319681 39.90134907337771
rfingers 7.125019999999998
rthumb 7.995262650126868 11.29935734618384
